<?xml version="1.0" encoding="UTF-8" standalone="no"?>
<!-- Created with Inkscape (http://www.inkscape.org/) -->

<svg
   width="1178.1594mm"
   height="946.9118mm"
   viewBox="0 0 1178.1594 946.9118"
   version="1.1"
   id="svg1"
   xmlns:inkscape="http://www.inkscape.org/namespaces/inkscape"
   xmlns:sodipodi="http://sodipodi.sourceforge.net/DTD/sodipodi-0.dtd"
   xmlns="http://www.w3.org/2000/svg"
   xmlns:svg="http://www.w3.org/2000/svg"
   xmlns:serif="http://www.serif.com/">
  <sodipodi:namedview
     id="namedview1"
     pagecolor="#ffffff"
     bordercolor="#000000"
     borderopacity="0.25"
     inkscape:showpageshadow="2"
     inkscape:pageopacity="0.0"
     inkscape:pagecheckerboard="0"
     inkscape:deskcolor="#d1d1d1"
     inkscape:document-units="mm">
    <inkscape:page
       x="1.6253156e-19"
       y="0"
       width="1178.1594"
       height="946.9118"
       id="page2"
       margin="0"
       bleed="0" />
  </sodipodi:namedview>
  <defs
     id="defs1">
    <clipPath
       id="_clip1">
                        <path
   d="m 2879,1596 c 0,0 -114.39,39.18 -184,-8 -69.61,-47.18 -50.13,-157.13 -163,-133 -112.87,24.13 -106.19,67.25 -168,13 -61.81,-54.25 -105.5,-58.07 -132,-58 -26.5,0.07 -32.21,-31.12 -80,-10 -47.79,21.12 -90.34,81.92 -157,75 -66.66,-6.92 -124.35,4.58 -206,55 -81.65,50.42 -161.31,-3.03 -191,-38 -29.69,-34.97 -222.07,-125.16 -305.34,-41.89 -59.5,59.5 -9.36,210.62 -8.66,339.89 0.7,129.27 -35.23,149.73 -32,186 3.23,36.27 -65.84,65.76 -93,57 -27.16,-8.76 -134.6,-46.27 -126,77 8.6,123.27 105.1,38.04 90,158 -15.1,119.96 -134.199,93.69 -88,192 46.2,98.31 156.6,49.74 170,179 13.4,129.26 122.91,136.24 163,217 40.09,80.76 9.8,151.54 94,147 84.2,-4.54 73.26,-136.5 250,-1 176.75,135.5 156.21,74.78 236,37 79.79,-37.78 132.82,-47.95 197,11 64.18,58.95 340.09,2.97 413,-16 72.91,-18.97 186,59.71 222,-16 36,-75.71 123.26,-29.91 116,54 -7.26,83.91 144.61,111.07 187,16 42.39,-95.07 -1.75,-128.21 -69,-183 -67.25,-54.79 1.94,-162.59 76,-140 74.06,22.59 134.2,24.8 158,-38 23.8,-62.8 73.07,-67.59 36,-143 -37.07,-75.41 37.84,-119.86 63,-105 25.16,14.86 90.69,-108.3 -65,-229.5 -155.69,-121.2 -114.55,-197.83 -86,-310.5 28.55,-112.67 37.44,-135.73 29.77,-184.38 -7.66,-48.65 27.49,-168.1 -75.86,-186.49 -103.35,-18.38 -122.96,6.16 -270.91,27.87 z"
   id="path2" />

                    </clipPath>
    <clipPath
       id="_clip2">
                        <path
   d="m 1256,2939 c 0,0 -49.51,-24.44 -79,32 -29.49,56.44 -28.33,94.87 7,124 35.33,29.13 58.43,35.58 92,19 33.57,-16.58 65.7,-30.87 57,-67 -8.7,-36.13 -23.4,-77.81 -77,-108 z"
   id="path10" />

                    </clipPath>
    <clipPath
       id="_clip3">
                        <path
   d="m 3257,2918 c 0,0 -12.43,-50.83 -1,-75 11.43,-24.17 91.58,-39.68 126.32,-2 34.74,37.68 -7.24,127.88 -36.32,134 -29.08,6.12 -70.65,-0.42 -89,-57 z"
   id="path19" />

                    </clipPath>
    <clipPath
       id="_clip4">
                        <path
   d="m 1719,1251 c 0,0 27.18,-8.54 32,49 4.82,57.54 -13.17,122.89 -62,116 -48.83,-6.89 -43.06,-63.35 -36,-97 7.06,-33.65 37.28,-72.88 66,-68 z"
   id="path23" />

                    </clipPath>
    <clipPath
       id="_clip5">
                        <path
   d="m 2919,1288 c 0,0 -28.28,-92.08 -123,-63 -94.72,29.08 -132.86,85.29 -116,150 16.86,64.71 101.29,69.12 153,41.5 51.71,-27.62 102.62,-85.74 86,-128.5 z"
   id="path27" />

                    </clipPath>
    <clipPath
       id="_clip6">
                        <path
   d="m 1012,1707 c 0,0 48.3,134.87 119,97 70.7,-37.87 22.41,-228.16 -40,-232 -62.41,-3.84 -103.873,69.42 -79,135 z"
   id="path31" />

                    </clipPath>
  </defs>
  <g
     inkscape:label="Layer 1"
     inkscape:groupmode="layer"
     id="layer1"
     transform="translate(485.89169,409.01119)">
    <g
       id="SVG-11"
       serif:id="SVG 1"
       transform="matrix(0.38758341,0,0,0.38758341,-765.8739,-660.51617)"
       style="clip-rule:evenodd;fill-rule:evenodd;stroke-linecap:round;stroke-linejoin:round;stroke-miterlimit:1.5"
       inkscape:export-filename="logo.svg"
       inkscape:export-xdpi="96"
       inkscape:export-ydpi="96">
                <g
   transform="matrix(1.26197,0,0,1.26197,-538.864,-912.213)"
   id="g5">
                    <path
   d="m 2879,1596 c 0,0 -114.39,39.18 -184,-8 -69.61,-47.18 -50.13,-157.13 -163,-133 -112.87,24.13 -106.19,67.25 -168,13 -61.81,-54.25 -105.5,-58.07 -132,-58 -26.5,0.07 -32.21,-31.12 -80,-10 -47.79,21.12 -90.34,81.92 -157,75 -66.66,-6.92 -124.35,4.58 -206,55 -81.65,50.42 -161.31,-3.03 -191,-38 -29.69,-34.97 -222.07,-125.16 -305.34,-41.89 -59.5,59.5 -9.36,210.62 -8.66,339.89 0.7,129.27 -35.23,149.73 -32,186 3.23,36.27 -65.84,65.76 -93,57 -27.16,-8.76 -134.6,-46.27 -126,77 8.6,123.27 105.1,38.04 90,158 -15.1,119.96 -134.199,93.69 -88,192 46.2,98.31 156.6,49.74 170,179 13.4,129.26 122.91,136.24 163,217 40.09,80.76 9.8,151.54 94,147 84.2,-4.54 73.26,-136.5 250,-1 176.75,135.5 156.21,74.78 236,37 79.79,-37.78 132.82,-47.95 197,11 64.18,58.95 340.09,2.97 413,-16 72.91,-18.97 186,59.71 222,-16 36,-75.71 123.26,-29.91 116,54 -7.26,83.91 144.61,111.07 187,16 42.39,-95.07 -1.75,-128.21 -69,-183 -67.25,-54.79 1.94,-162.59 76,-140 74.06,22.59 134.2,24.8 158,-38 23.8,-62.8 73.07,-67.59 36,-143 -37.07,-75.41 37.84,-119.86 63,-105 25.16,14.86 90.69,-108.3 -65,-229.5 -155.69,-121.2 -114.55,-197.83 -86,-310.5 28.55,-112.67 37.44,-135.73 29.77,-184.38 -7.66,-48.65 27.49,-168.1 -75.86,-186.49 -103.35,-18.38 -122.96,6.16 -270.91,27.87 z"
   style="fill:#eebe93"
   id="path1" />

                    <clipPath
   id="clipPath3">
                        <path
   d="m 2879,1596 c 0,0 -114.39,39.18 -184,-8 -69.61,-47.18 -50.13,-157.13 -163,-133 -112.87,24.13 -106.19,67.25 -168,13 -61.81,-54.25 -105.5,-58.07 -132,-58 -26.5,0.07 -32.21,-31.12 -80,-10 -47.79,21.12 -90.34,81.92 -157,75 -66.66,-6.92 -124.35,4.58 -206,55 -81.65,50.42 -161.31,-3.03 -191,-38 -29.69,-34.97 -222.07,-125.16 -305.34,-41.89 -59.5,59.5 -9.36,210.62 -8.66,339.89 0.7,129.27 -35.23,149.73 -32,186 3.23,36.27 -65.84,65.76 -93,57 -27.16,-8.76 -134.6,-46.27 -126,77 8.6,123.27 105.1,38.04 90,158 -15.1,119.96 -134.199,93.69 -88,192 46.2,98.31 156.6,49.74 170,179 13.4,129.26 122.91,136.24 163,217 40.09,80.76 9.8,151.54 94,147 84.2,-4.54 73.26,-136.5 250,-1 176.75,135.5 156.21,74.78 236,37 79.79,-37.78 132.82,-47.95 197,11 64.18,58.95 340.09,2.97 413,-16 72.91,-18.97 186,59.71 222,-16 36,-75.71 123.26,-29.91 116,54 -7.26,83.91 144.61,111.07 187,16 42.39,-95.07 -1.75,-128.21 -69,-183 -67.25,-54.79 1.94,-162.59 76,-140 74.06,22.59 134.2,24.8 158,-38 23.8,-62.8 73.07,-67.59 36,-143 -37.07,-75.41 37.84,-119.86 63,-105 25.16,14.86 90.69,-108.3 -65,-229.5 -155.69,-121.2 -114.55,-197.83 -86,-310.5 28.55,-112.67 37.44,-135.73 29.77,-184.38 -7.66,-48.65 27.49,-168.1 -75.86,-186.49 -103.35,-18.38 -122.96,6.16 -270.91,27.87 z"
   id="path3" />

                    </clipPath>

                    <g
   clip-path="url(#_clip1)"
   id="g4">
                        <g
   transform="matrix(1.03054,0,0,1,-67.2812,-54.109)"
   id="g3">
                            <path
   d="m 2879,1596 c 0,0 -114.39,39.18 -184,-8 -69.61,-47.18 -50.13,-157.13 -163,-133 -112.87,24.13 -106.19,67.25 -168,13 -61.81,-54.25 -105.5,-58.07 -132,-58 -26.5,0.07 -32.21,-31.12 -80,-10 -47.79,21.12 -90.34,81.92 -157,75 -66.66,-6.92 -124.35,4.58 -206,55 -81.65,50.42 -161.31,-3.03 -191,-38 -29.69,-34.97 -252.47,-105.35 -299,-72 -46.53,33.35 -15.7,240.73 -15,370 0.7,129.27 -35.23,149.73 -32,186 3.23,36.27 -65.84,65.76 -93,57 -27.16,-8.76 -75.63,-38.1 -87.85,84.85 -12.74,128.26 60.63,53.75 65.91,148.71 9.38,168.77 -96.83,132.74 -50.63,231.05 46.2,98.31 172.13,40.13 185.52,169.39 13.4,129.26 92.84,107.24 132.92,188 40.09,80.76 15.62,136.54 99.83,132 84.2,-4.54 30.56,-120.5 207.3,15 176.75,135.5 156.21,74.78 236,37 79.79,-37.78 132.82,-47.95 197,11 64.18,58.95 340.09,2.97 413,-16 72.91,-18.97 186,59.71 222,-16 36,-75.71 123.26,-29.91 116,54 -7.26,83.91 134.2,110.18 176.58,15.11 42.39,-95.07 8.67,-127.32 -58.58,-182.11 -67.25,-54.79 1.94,-162.59 76,-140 74.06,22.59 168.17,34.8 191.96,-28 23.8,-62.8 -2.07,-53.32 -39.14,-128.74 -37.06,-75.41 79.02,-144.12 104.18,-129.26 25.16,14.86 90.69,-108.3 -65,-229.5 -155.69,-121.2 -114.55,-197.83 -86,-310.5 28.55,-112.67 13.67,-133.35 6,-182 -7.67,-48.65 62.35,-135.62 -41,-154 -103.35,-18.38 -134.05,-28.71 -282,-7 z"
   style="fill:#f8f1e5"
   id="path4" />

                        </g>

                    </g>

                    <path
   d="m 3335.52,2501.22 c -1.19,0.15 -5.76,0.73 -8.52,1.84 -10.87,4.34 -22.27,14.47 -26.46,29.08 -3.25,11.35 -1.85,25.07 5.9,40.83 13.97,28.43 17.25,49.09 15.49,65.91 -1.86,17.83 -9.43,32.09 -19.93,46.86 -9.48,13.34 -22.03,27.46 -30.62,50.12 -28.7,75.73 -99.35,80.3 -188.67,53.05 -25.56,-7.79 -49.61,8.33 -62.13,29.71 -12.26,20.92 -13.49,48.5 9.21,67 45.18,36.81 79.44,66.29 90.65,105.86 7.93,27.97 5.53,61.55 -14.61,106.7 -31.34,70.31 -110.9,87.31 -167.9,66.58 -41.75,-15.19 -70.77,-49.45 -66.84,-94.91 3,-34.6 -14.24,-61.64 -36.37,-65 -12.34,-1.88 -23.86,6.48 -32.14,23.88 -19.56,41.14 -54.76,51.1 -97.63,47.03 -24.43,-2.31 -51.68,-9.49 -78.45,-14.74 -22.02,-4.31 -43.63,-7.66 -62.21,-2.82 -52.17,13.57 -206.03,45.54 -316.15,42.92 -53.7,-1.28 -97.65,-12.14 -120.05,-32.71 -21.35,-19.61 -40.92,-30.55 -61.32,-33.98 -32.46,-5.44 -65.85,7.17 -108.07,27.17 -22.43,10.62 -36.28,23.35 -49.31,32.29 -12.88,8.83 -25.34,14.79 -40.29,16.44 -14.15,1.56 -30.98,-0.72 -53.33,-10.56 -26.67,-11.74 -63.64,-35.5 -118.98,-77.93 -54.53,-41.81 -87.79,-56.81 -112.48,-55.78 -21.66,0.91 -33.99,15.72 -48.23,28.02 -19.74,17.07 -41.1,32.18 -72.73,33.88 -28.95,1.57 -47.74,-4.71 -60.97,-14.69 -13.72,-10.34 -22.25,-25.38 -27.92,-44.76 -7.65,-26.14 -9.61,-62.62 -28.85,-101.39 -18.43,-37.12 -53.68,-56.39 -84.99,-82.12 -38.51,-31.66 -72.91,-70.36 -80.49,-143.42 -6.67,-64.36 -43.84,-74.27 -79.57,-90.58 -33.55,-15.32 -66.59,-34.42 -88.19,-80.37 -12.08,-25.72 -14.509,-45.13 -12.12,-60.64 2.69,-17.43 11.33,-31.05 23.95,-43.37 8.21,-8.03 18.36,-15.56 28.87,-24.15 19.13,-15.63 39.87,-35.84 45.13,-77.59 2.59,-20.63 2.31,-32.93 -2.33,-40.72 -2.87,-4.81 -7.74,-6.42 -12.54,-8.42 -6.91,-2.88 -14.26,-5.44 -21.44,-8.9 -24.38,-11.75 -49.37,-31.17 -53.83,-95.1 -3.29,-47.1 8.88,-75.2 25.45,-91.96 16.91,-17.11 39.72,-23.78 63.11,-23.99 28.36,-0.24 57.21,9.28 70.05,13.42 3.33,1.07 7.87,0.32 12.85,-0.63 11.41,-2.19 24.29,-7.47 34.48,-14.71 3.82,-2.71 7.25,-5.68 9.87,-8.95 1.71,-2.15 3.45,-4.21 3.23,-6.7 -1.29,-14.47 1.59,-27.14 6.95,-42.3 8.89,-25.14 25.41,-60.26 24.95,-145.79 -0.42,-77.4 -18.63,-162.66 -20.28,-231.3 -1.3,-53.88 8.3,-98.44 36.26,-126.4 38.7,-38.69 97.21,-47.13 156.26,-38.34 83.44,12.41 166.32,58.77 185.82,81.73 24.73,29.12 90.81,74.89 158.81,32.91 87.82,-54.23 150.01,-66.04 221.71,-58.6 26.97,2.8 48.75,-9.05 68.93,-22.78 26.25,-17.87 50.24,-39.1 75.38,-50.22 34.28,-15.14 53.55,-9.94 68.92,-2.56 4.81,2.31 9.17,5.05 13.59,7.56 2.28,1.3 4.46,2.88 7.54,2.87 29.74,-0.08 79.17,3.32 148.55,64.21 13.45,11.8 21.66,18.44 29.85,19.81 6.93,1.16 12.84,-2.49 21.54,-6.3 19.93,-8.72 47.36,-22.01 94.89,-32.17 35.61,-7.61 60.71,-3.55 79.81,6.11 19.4,9.81 33.16,25.91 44.67,45.39 16.23,27.48 26.28,63.91 57.78,85.26 23.51,15.93 53.23,19.51 80.24,18.89 43.92,-1 81.63,-13.85 81.63,-13.85 1.45,-0.5 2.95,-0.86 4.47,-1.08 152.27,-22.35 172.55,-46.67 278.91,-27.75 65.5,11.65 87.77,54.74 94.22,103.21 5.06,38.03 -1.84,79.81 1.97,104 8.08,51.25 -0.16,75.72 -30.24,194.41 -15.84,62.53 -37.8,112.85 -20.19,167.48 11.58,35.92 40.51,72.93 97.32,117.15 123.65,96.26 119.3,195.73 98.78,239.69 -9.38,20.1 -23.54,31.08 -34.55,34.3 -9.35,2.73 -18.2,1.71 -26.07,-2.54 z M 2879,1596 c 0,0 -114.39,39.18 -184,-8 -69.61,-47.18 -50.13,-157.13 -163,-133 -112.87,24.13 -106.19,67.25 -168,13 -61.81,-54.25 -105.5,-58.07 -132,-58 -26.5,0.07 -32.21,-31.12 -80,-10 -47.79,21.12 -90.34,81.92 -157,75 -66.66,-6.92 -124.35,4.58 -206,55 -81.65,50.42 -161.31,-3.03 -191,-38 -29.69,-34.97 -222.07,-125.16 -305.34,-41.89 -59.5,59.5 -9.36,210.62 -8.66,339.89 0.7,129.27 -35.23,149.73 -32,186 3.23,36.27 -65.84,65.76 -93,57 -27.16,-8.76 -134.6,-46.27 -126,77 8.6,123.27 105.1,38.04 90,158 -15.1,119.96 -134.199,93.69 -88,192 46.2,98.31 156.6,49.74 170,179 13.4,129.26 122.91,136.24 163,217 40.09,80.76 9.8,151.54 94,147 84.2,-4.54 73.26,-136.5 250,-1 176.75,135.5 156.21,74.78 236,37 79.79,-37.78 132.82,-47.95 197,11 64.18,58.95 340.09,2.97 413,-16 72.91,-18.97 186,59.71 222,-16 36,-75.71 123.26,-29.91 116,54 -7.26,83.91 144.61,111.07 187,16 42.39,-95.07 -1.75,-128.21 -69,-183 -67.25,-54.79 1.94,-162.59 76,-140 74.06,22.59 134.2,24.8 158,-38 23.8,-62.8 73.07,-67.59 36,-143 -37.07,-75.41 37.84,-119.86 63,-105 25.16,14.86 90.69,-108.3 -65,-229.5 -155.69,-121.2 -114.55,-197.83 -86,-310.5 28.55,-112.67 37.44,-135.73 29.77,-184.38 -7.66,-48.65 27.49,-168.1 -75.86,-186.49 -103.35,-18.38 -122.96,6.16 -270.91,27.87 z"
   style="fill:#864335"
   id="path5" />

                </g>

                <g
   transform="matrix(1.06348,0.118772,-0.143155,1.28181,132.757,-1179.4)"
   id="g6">
                    <circle
   cx="1957"
   cy="1954"
   r="66"
   style="fill:#864600"
   id="circle5" />

                </g>

                <g
   transform="matrix(1.06348,0.118772,-0.143155,1.28181,646.378,-1141.54)"
   id="g7">
                    <circle
   cx="1957"
   cy="1954"
   r="66"
   style="fill:#864600"
   id="circle6" />

                </g>

                <g
   transform="matrix(1.26197,0,0,1.26197,-538.864,-912.213)"
   id="g8">
                    <path
   d="m 1373,1800 c 0,0 69,-46.32 78,-63 9,-16.68 52,-37 52,-37 0,0 -63.28,-98.89 -78,-124 -14.72,-25.11 -57.74,-79.91 -68,-41 -10.26,38.91 4.44,77.3 4,100 -0.44,22.7 9.58,97.69 17,109 7.42,11.31 -5,56 -5,56 z"
   style="fill:#864600"
   id="path7" />

                </g>

                <g
   transform="matrix(-1.25893,-0.087532,-0.087532,1.25893,5225.95,-561.31)"
   id="g9">
                    <path
   d="m 1388.24,1797.05 c 0,0 53.76,-43.37 62.76,-60.05 9,-16.68 59.37,-56.54 59.37,-56.54 0,0 -22.48,-12.44 -42.17,-35.65 -19.37,-22.84 -27.92,-55.8 -35.22,-68.25 -14.72,-25.12 -65.72,-80.47 -75.98,-41.56 -10.26,38.91 4.44,77.3 4,100 -0.44,22.7 9.58,97.69 17,109 7.42,11.31 10.24,53.05 10.24,53.05 z"
   style="fill:#864600"
   id="path8" />

                </g>

                <g
   transform="matrix(1.26197,0,0,1.26197,-542.65,-990.455)"
   id="g13">
                    <path
   d="m 1256,2939 c 0,0 -49.51,-24.44 -79,32 -29.49,56.44 -28.33,94.87 7,124 35.33,29.13 58.43,35.58 92,19 33.57,-16.58 65.7,-30.87 57,-67 -8.7,-36.13 -23.4,-77.81 -77,-108 z"
   style="fill:#eebe93"
   id="path9" />

                    <clipPath
   id="clipPath6">
                        <path
   d="m 1256,2939 c 0,0 -49.51,-24.44 -79,32 -29.49,56.44 -28.33,94.87 7,124 35.33,29.13 58.43,35.58 92,19 33.57,-16.58 65.7,-30.87 57,-67 -8.7,-36.13 -23.4,-77.81 -77,-108 z"
   id="path6" />

                    </clipPath>

                    <g
   clip-path="url(#_clip2)"
   id="g12">
                        <g
   transform="translate(7,-33)"
   id="g11">
                            <path
   d="m 1256,2939 c 0,0 -49.51,-24.44 -79,32 -29.49,56.44 -28.33,94.87 7,124 35.33,29.13 58.43,35.58 92,19 33.57,-16.58 65.7,-30.87 57,-67 -8.7,-36.13 -23.4,-77.81 -77,-108 z"
   style="fill:#f8f1e5"
   id="path11" />

                        </g>

                    </g>

                    <path
   d="m 1256,2939 c 0,0 -49.51,-24.44 -79,32 -29.49,56.44 -28.33,94.87 7,124 35.33,29.13 58.43,35.58 92,19 33.57,-16.58 65.7,-30.87 57,-67 -8.7,-36.13 -23.4,-77.81 -77,-108 z"
   style="fill:none;stroke:#864335;stroke-width:25px"
   id="path12" />

                </g>

                <g
   transform="matrix(1.26197,0,0,1.26197,-538.864,-912.213)"
   id="g14">
                    <path
   d="m 2093,2077 c 0,0 60.61,-24.24 110.37,15 0,0 -14.67,52.76 -64.37,46 -49.7,-6.76 -46,-61 -46,-61 z"
   style="fill:#864600"
   id="path13" />

                </g>

                <g
   transform="matrix(1.26197,0,0,1.26197,-538.864,-912.213)"
   id="g15">
                    <path
   d="m 2143,2130 c 0,0 -6.33,38.85 -43,40 -36.67,1.15 -50,-31.4 -50,-31.4"
   style="fill:none;stroke:#864600;stroke-width:25px"
   id="path14" />

                </g>

                <g
   transform="matrix(-1.23683,-0.250654,-0.250654,1.23683,5346.04,-321.507)"
   id="g16">
                    <path
   d="m 2143,2130 c 0,0 -6.33,38.85 -43,40 -36.67,1.15 -50,-31.4 -50,-31.4"
   style="fill:none;stroke:#864600;stroke-width:25px"
   id="path15" />

                </g>

                <g
   transform="matrix(1.25748,0.106335,-0.106335,1.25748,-278.759,-1095.24)"
   id="g17">
                    <ellipse
   cx="1750.5"
   cy="2109.8"
   rx="104.5"
   ry="40.209999"
   style="fill:#eebe93"
   id="ellipse16" />

                </g>

                <g
   transform="matrix(1.25748,0.106335,-0.106335,1.25748,654.818,-1011.13)"
   id="g18">
                    <ellipse
   cx="1750.5"
   cy="2109.8"
   rx="104.5"
   ry="40.209999"
   style="fill:#eebe93"
   id="ellipse17" />

                </g>

                <g
   transform="matrix(1.26197,0,0,1.26197,-538.864,-912.213)"
   id="g22">
                    <path
   d="m 3257,2918 c 0,0 -12.43,-50.83 -1,-75 11.43,-24.17 91.58,-39.68 126.32,-2 34.74,37.68 -7.24,127.88 -36.32,134 -29.08,6.12 -70.65,-0.42 -89,-57 z"
   style="fill:#f2ad67"
   id="path18" />

                    <clipPath
   id="clipPath16">
                        <path
   d="m 3257,2918 c 0,0 -12.43,-50.83 -1,-75 11.43,-24.17 91.58,-39.68 126.32,-2 34.74,37.68 -7.24,127.88 -36.32,134 -29.08,6.12 -70.65,-0.42 -89,-57 z"
   id="path16" />

                    </clipPath>

                    <g
   clip-path="url(#_clip3)"
   id="g21">
                        <g
   transform="translate(-21,-30)"
   id="g20">
                            <path
   d="m 3257,2918 c 0,0 -12.43,-50.83 -1,-75 11.43,-24.17 91.58,-39.68 126.32,-2 34.74,37.68 -7.24,127.88 -36.32,134 -29.08,6.12 -70.65,-0.42 -89,-57 z"
   style="fill:#f8f1e5"
   id="path20" />

                        </g>

                    </g>

                    <path
   d="m 3257,2918 c 0,0 -12.43,-50.83 -1,-75 11.43,-24.17 91.58,-39.68 126.32,-2 34.74,37.68 -7.24,127.88 -36.32,134 -29.08,6.12 -70.65,-0.42 -89,-57 z"
   style="fill:none;stroke:#864335;stroke-width:25px"
   id="path21" />

                </g>

                <g
   transform="matrix(1.26197,0,0,1.26197,-538.864,-854.073)"
   id="g26">
                    <path
   d="m 1719,1251 c 0,0 27.18,-8.54 32,49 4.82,57.54 -13.17,122.89 -62,116 -48.83,-6.89 -43.06,-63.35 -36,-97 7.06,-33.65 37.28,-72.88 66,-68 z"
   style="fill:#f2ad67"
   id="path22" />

                    <clipPath
   id="clipPath17">
                        <path
   d="m 1719,1251 c 0,0 27.18,-8.54 32,49 4.82,57.54 -13.17,122.89 -62,116 -48.83,-6.89 -43.06,-63.35 -36,-97 7.06,-33.65 37.28,-72.88 66,-68 z"
   id="path17" />

                    </clipPath>

                    <g
   clip-path="url(#_clip4)"
   id="g25">
                        <g
   transform="translate(24,-24)"
   id="g24">
                            <path
   d="m 1719,1251 c 0,0 27.18,-8.54 32,49 4.82,57.54 -13.17,122.89 -62,116 -48.83,-6.89 -43.06,-63.35 -36,-97 7.06,-33.65 37.28,-72.88 66,-68 z"
   style="fill:#f8f1e5"
   id="path24" />

                        </g>

                    </g>

                    <path
   d="m 1719,1251 c 0,0 27.18,-8.54 32,49 4.82,57.54 -13.17,122.89 -62,116 -48.83,-6.89 -43.06,-63.35 -36,-97 7.06,-33.65 37.28,-72.88 66,-68 z"
   style="fill:none;stroke:#864335;stroke-width:25px"
   id="path25" />

                </g>

                <g
   transform="matrix(1.26197,0,0,1.26197,-538.864,-874.354)"
   id="g30">
                    <path
   d="m 2919,1288 c 0,0 -28.28,-92.08 -123,-63 -94.72,29.08 -132.86,85.29 -116,150 16.86,64.71 101.29,69.12 153,41.5 51.71,-27.62 102.62,-85.74 86,-128.5 z"
   style="fill:#f2ad67"
   id="path26" />

                    <clipPath
   id="clipPath28">
                        <path
   d="m 2919,1288 c 0,0 -28.28,-92.08 -123,-63 -94.72,29.08 -132.86,85.29 -116,150 16.86,64.71 101.29,69.12 153,41.5 51.71,-27.62 102.62,-85.74 86,-128.5 z"
   id="path28" />

                    </clipPath>

                    <g
   clip-path="url(#_clip5)"
   id="g29">
                        <g
   transform="translate(0,-35)"
   id="g28">
                            <path
   d="m 2919,1288 c 0,0 -28.28,-92.08 -123,-63 -94.72,29.08 -132.86,85.29 -116,150 16.86,64.71 101.29,69.12 153,41.5 51.71,-27.62 102.62,-85.74 86,-128.5 z"
   style="fill:#f8f1e5"
   id="path29" />

                        </g>

                    </g>

                    <path
   d="m 2919,1288 c 0,0 -28.28,-92.08 -123,-63 -94.72,29.08 -132.86,85.29 -116,150 16.86,64.71 101.29,69.12 153,41.5 51.71,-27.62 102.62,-85.74 86,-128.5 z"
   style="fill:none;stroke:#864335;stroke-width:25px"
   id="path30" />

                </g>

                <g
   transform="matrix(1.26197,0,0,1.26197,-513.625,-850.377)"
   id="g34">
                    <path
   d="m 1012,1707 c 0,0 48.3,134.87 119,97 70.7,-37.87 22.41,-228.16 -40,-232 -62.41,-3.84 -103.873,69.42 -79,135 z"
   style="fill:#f2ad67"
   id="path32" />

                    <clipPath
   id="clipPath33">
                        <path
   d="m 1012,1707 c 0,0 48.3,134.87 119,97 70.7,-37.87 22.41,-228.16 -40,-232 -62.41,-3.84 -103.873,69.42 -79,135 z"
   id="path33" />

                    </clipPath>

                    <g
   clip-path="url(#_clip6)"
   id="g33">
                        <g
   transform="translate(6,-29)"
   id="g32">
                            <path
   d="m 1012,1707 c 0,0 48.3,134.87 119,97 70.7,-37.87 22.41,-228.16 -40,-232 -62.41,-3.84 -103.873,69.42 -79,135 z"
   style="fill:#f8f1e5"
   id="path34" />

                        </g>

                    </g>

                    <path
   d="m 1012,1707 c 0,0 48.3,134.87 119,97 70.7,-37.87 22.41,-228.16 -40,-232 -62.41,-3.84 -103.873,69.42 -79,135 z"
   style="fill:none;stroke:#864335;stroke-width:25px"
   id="path35" />

                </g>

                <g
   transform="matrix(1.95605,0,0,1.95605,-1986.03,-2260.22)"
   id="g35">
                    <ellipse
   cx="1995"
   cy="1938.5"
   rx="10"
   ry="14.5"
   style="fill:#ffe3d8"
   id="ellipse34" />

                </g>

                <g
   transform="matrix(1.95605,0,0,1.95605,-1474.93,-2221.1)"
   id="g36">
                    <ellipse
   cx="1995"
   cy="1938.5"
   rx="10"
   ry="14.5"
   style="fill:#ffe3d8"
   id="ellipse35" />

                </g>

                
            </g>
  </g>
</svg>
